<?xml version="1.0" encoding="UTF-8" standalone="no"?>
<!DOCTYPE svg PUBLIC "-//W3C//DTD SVG 1.1//EN"
 "http://www.w3.org/Graphics/SVG/1.1/DTD/svg11.dtd">
<!-- Generated by graphviz version 9.0.0 (0)
 -->
<!-- Title: G Pages: 1 -->
<svg width="1105pt" height="1079pt"
 viewBox="0.00 0.00 1104.80 1079.20" xmlns="http://www.w3.org/2000/svg" xmlns:xlink="http://www.w3.org/1999/xlink">
<g id="graph0" class="graph" transform="scale(1 1) rotate(0) translate(4 1075.2)">
<title>G</title>
<polygon fill="white" stroke="none" points="-4,4 -4,-1075.2 1100.8,-1075.2 1100.8,4 -4,4"/>
<!-- 0 -->
<g id="node1" class="node">
<title>0</title>
<ellipse fill="none" stroke="black" cx="1054.6" cy="-410.81" rx="27" ry="18"/>
<text text-anchor="middle" x="1054.6" y="-406.13" font-family="Times,serif" font-size="14.00">Z</text>
</g>
<!-- 1 -->
<g id="node2" class="node">
<title>1</title>
<ellipse fill="none" stroke="black" cx="1010.1" cy="-293.29" rx="27" ry="18"/>
<text text-anchor="middle" x="1010.1" y="-288.62" font-family="Times,serif" font-size="14.00">A</text>
</g>
<!-- 0&#45;&gt;1 -->
<g id="edge1" class="edge">
<title>0&#45;&gt;1</title>
<path fill="none" stroke="black" d="M1047.84,-392.96C1040.64,-373.96 1029.16,-343.61 1020.74,-321.39"/>
<polygon fill="black" stroke="black" points="1024.13,-320.45 1017.31,-312.34 1017.58,-322.93 1024.13,-320.45"/>
</g>
<!-- 14 -->
<g id="node15" class="node">
<title>14</title>
<ellipse fill="none" stroke="black" cx="86.72" cy="-777.89" rx="27" ry="18"/>
<text text-anchor="middle" x="86.72" y="-773.22" font-family="Times,serif" font-size="14.00">N</text>
</g>
<!-- 0&#45;&gt;14 -->
<g id="edge27" class="edge">
<title>0&#45;&gt;14</title>
<path fill="none" stroke="black" d="M1030.67,-419.88C900.18,-469.38 274.57,-706.65 120.88,-764.94"/>
<polygon fill="black" stroke="black" points="119.77,-761.61 111.66,-768.43 122.25,-768.16 119.77,-761.61"/>
</g>
<!-- 2 -->
<g id="node3" class="node">
<title>2</title>
<ellipse fill="none" stroke="black" cx="938.66" cy="-189.84" rx="27" ry="18"/>
<text text-anchor="middle" x="938.66" y="-185.16" font-family="Times,serif" font-size="14.00">B</text>
</g>
<!-- 1&#45;&gt;2 -->
<g id="edge2" class="edge">
<title>1&#45;&gt;2</title>
<path fill="none" stroke="black" d="M998.62,-276.67C987.27,-260.23 969.73,-234.83 956.55,-215.75"/>
<polygon fill="black" stroke="black" points="959.53,-213.9 950.97,-207.67 953.77,-217.88 959.53,-213.9"/>
</g>
<!-- 3 -->
<g id="node4" class="node">
<title>3</title>
<ellipse fill="none" stroke="black" cx="844.58" cy="-106.49" rx="27" ry="18"/>
<text text-anchor="middle" x="844.58" y="-101.81" font-family="Times,serif" font-size="14.00">C</text>
</g>
<!-- 2&#45;&gt;3 -->
<g id="edge3" class="edge">
<title>2&#45;&gt;3</title>
<path fill="none" stroke="black" d="M922.27,-175.32C907.66,-162.37 886.05,-143.23 869.33,-128.42"/>
<polygon fill="black" stroke="black" points="872.03,-126.14 862.23,-122.13 867.39,-131.38 872.03,-126.14"/>
</g>
<!-- 4 -->
<g id="node5" class="node">
<title>4</title>
<ellipse fill="none" stroke="black" cx="733.28" cy="-48.08" rx="27" ry="18"/>
<text text-anchor="middle" x="733.28" y="-43.41" font-family="Times,serif" font-size="14.00">D</text>
</g>
<!-- 3&#45;&gt;4 -->
<g id="edge4" class="edge">
<title>3&#45;&gt;4</title>
<path fill="none" stroke="black" d="M823.12,-95.23C806.57,-86.54 783.43,-74.4 764.78,-64.61"/>
<polygon fill="black" stroke="black" points="766.5,-61.56 756.01,-60.01 763.24,-67.76 766.5,-61.56"/>
</g>
<!-- 5 -->
<g id="node6" class="node">
<title>5</title>
<ellipse fill="none" stroke="black" cx="611.24" cy="-18" rx="27" ry="18"/>
<text text-anchor="middle" x="611.24" y="-13.32" font-family="Times,serif" font-size="14.00">E</text>
</g>
<!-- 4&#45;&gt;5 -->
<g id="edge5" class="edge">
<title>4&#45;&gt;5</title>
<path fill="none" stroke="black" d="M707.7,-41.77C690.37,-37.5 667.2,-31.79 647.92,-27.04"/>
<polygon fill="black" stroke="black" points="648.81,-23.65 638.26,-24.66 647.13,-30.45 648.81,-23.65"/>
</g>
<!-- 6 -->
<g id="node7" class="node">
<title>6</title>
<ellipse fill="none" stroke="black" cx="485.54" cy="-18" rx="27" ry="18"/>
<text text-anchor="middle" x="485.54" y="-13.32" font-family="Times,serif" font-size="14.00">F</text>
</g>
<!-- 5&#45;&gt;6 -->
<g id="edge6" class="edge">
<title>5&#45;&gt;6</title>
<path fill="none" stroke="black" d="M583.96,-18C566.5,-18 543.58,-18 524.25,-18"/>
<polygon fill="black" stroke="black" points="524.28,-14.5 514.28,-18 524.28,-21.5 524.28,-14.5"/>
</g>
<!-- 7 -->
<g id="node8" class="node">
<title>7</title>
<ellipse fill="none" stroke="black" cx="363.5" cy="-48.08" rx="27" ry="18"/>
<text text-anchor="middle" x="363.5" y="-43.41" font-family="Times,serif" font-size="14.00">G</text>
</g>
<!-- 6&#45;&gt;7 -->
<g id="edge7" class="edge">
<title>6&#45;&gt;7</title>
<path fill="none" stroke="black" d="M459.96,-24.31C442.63,-28.58 419.46,-34.29 400.18,-39.04"/>
<polygon fill="black" stroke="black" points="399.39,-35.63 390.52,-41.42 401.07,-42.43 399.39,-35.63"/>
</g>
<!-- 8 -->
<g id="node9" class="node">
<title>8</title>
<ellipse fill="none" stroke="black" cx="252.21" cy="-106.49" rx="27" ry="18"/>
<text text-anchor="middle" x="252.21" y="-101.81" font-family="Times,serif" font-size="14.00">H</text>
</g>
<!-- 7&#45;&gt;8 -->
<g id="edge8" class="edge">
<title>7&#45;&gt;8</title>
<path fill="none" stroke="black" d="M342.04,-59.34C325.49,-68.03 302.35,-80.17 283.7,-89.96"/>
<polygon fill="black" stroke="black" points="282.17,-86.81 274.94,-94.56 285.42,-93.01 282.17,-86.81"/>
</g>
<!-- 9 -->
<g id="node10" class="node">
<title>9</title>
<ellipse fill="none" stroke="black" cx="158.12" cy="-189.84" rx="27" ry="18"/>
<text text-anchor="middle" x="158.12" y="-185.16" font-family="Times,serif" font-size="14.00">I</text>
</g>
<!-- 7&#45;&gt;9 -->
<g id="edge34" class="edge">
<title>7&#45;&gt;9</title>
<path fill="none" stroke="black" d="M344.55,-61.16C308.25,-86.22 228.76,-141.08 186.25,-170.42"/>
<polygon fill="black" stroke="black" points="184.52,-167.37 178.27,-175.93 188.49,-173.13 184.52,-167.37"/>
</g>
<!-- 8&#45;&gt;9 -->
<g id="edge9" class="edge">
<title>8&#45;&gt;9</title>
<path fill="none" stroke="black" d="M235.82,-121.01C221.2,-133.96 199.6,-153.1 182.87,-167.91"/>
<polygon fill="black" stroke="black" points="180.93,-164.95 175.77,-174.2 185.58,-170.19 180.93,-164.95"/>
</g>
<!-- 18 -->
<g id="node19" class="node">
<title>18</title>
<ellipse fill="none" stroke="black" cx="485.54" cy="-1053.2" rx="27" ry="18"/>
<text text-anchor="middle" x="485.54" y="-1048.53" font-family="Times,serif" font-size="14.00">R</text>
</g>
<!-- 8&#45;&gt;18 -->
<g id="edge35" class="edge">
<title>8&#45;&gt;18</title>
<path fill="none" stroke="black" d="M256.66,-124.56C285.25,-240.55 442.92,-880.29 478.44,-1024.37"/>
<polygon fill="black" stroke="black" points="474.98,-1024.99 480.77,-1033.86 481.78,-1023.31 474.98,-1024.99"/>
</g>
<!-- 10 -->
<g id="node11" class="node">
<title>10</title>
<ellipse fill="none" stroke="black" cx="86.72" cy="-293.29" rx="27" ry="18"/>
<text text-anchor="middle" x="86.72" y="-288.62" font-family="Times,serif" font-size="14.00">J</text>
</g>
<!-- 9&#45;&gt;10 -->
<g id="edge10" class="edge">
<title>9&#45;&gt;10</title>
<path fill="none" stroke="black" d="M146.65,-206.46C135.3,-222.9 117.77,-248.3 104.6,-267.38"/>
<polygon fill="black" stroke="black" points="101.82,-265.25 99.02,-275.46 107.59,-269.22 101.82,-265.25"/>
</g>
<!-- 17 -->
<g id="node18" class="node">
<title>17</title>
<ellipse fill="none" stroke="black" cx="363.5" cy="-1023.1" rx="27" ry="18"/>
<text text-anchor="middle" x="363.5" y="-1018.42" font-family="Times,serif" font-size="14.00">Q</text>
</g>
<!-- 9&#45;&gt;17 -->
<g id="edge33" class="edge">
<title>9&#45;&gt;17</title>
<path fill="none" stroke="black" d="M162.6,-208.02C188.97,-314.98 323.84,-862.21 356.41,-994.35"/>
<polygon fill="black" stroke="black" points="352.92,-994.82 358.72,-1003.69 359.72,-993.14 352.92,-994.82"/>
</g>
<!-- 11 -->
<g id="node12" class="node">
<title>11</title>
<ellipse fill="none" stroke="black" cx="42.15" cy="-410.81" rx="27" ry="18"/>
<text text-anchor="middle" x="42.15" y="-406.13" font-family="Times,serif" font-size="14.00">K</text>
</g>
<!-- 10&#45;&gt;11 -->
<g id="edge11" class="edge">
<title>10&#45;&gt;11</title>
<path fill="none" stroke="black" d="M79.95,-311.14C72.74,-330.14 61.24,-360.49 52.81,-382.71"/>
<polygon fill="black" stroke="black" points="49.65,-381.17 49.37,-391.76 56.19,-383.65 49.65,-381.17"/>
</g>
<!-- 12 -->
<g id="node13" class="node">
<title>12</title>
<ellipse fill="none" stroke="black" cx="27" cy="-535.59" rx="27" ry="18"/>
<text text-anchor="middle" x="27" y="-530.92" font-family="Times,serif" font-size="14.00">L</text>
</g>
<!-- 11&#45;&gt;12 -->
<g id="edge12" class="edge">
<title>11&#45;&gt;12</title>
<path fill="none" stroke="black" d="M39.92,-429.22C37.45,-449.52 33.45,-482.45 30.56,-506.3"/>
<polygon fill="black" stroke="black" points="27.11,-505.66 29.38,-516.01 34.06,-506.5 27.11,-505.66"/>
</g>
<!-- 13 -->
<g id="node14" class="node">
<title>13</title>
<ellipse fill="none" stroke="black" cx="42.15" cy="-660.37" rx="27" ry="18"/>
<text text-anchor="middle" x="42.15" y="-655.7" font-family="Times,serif" font-size="14.00">M</text>
</g>
<!-- 12&#45;&gt;13 -->
<g id="edge13" class="edge">
<title>12&#45;&gt;13</title>
<path fill="none" stroke="black" d="M29.24,-554C31.7,-574.3 35.7,-607.23 38.59,-631.08"/>
<polygon fill="black" stroke="black" points="35.09,-631.28 39.77,-640.79 42.04,-630.44 35.09,-631.28"/>
</g>
<!-- 13&#45;&gt;14 -->
<g id="edge14" class="edge">
<title>13&#45;&gt;14</title>
<path fill="none" stroke="black" d="M48.92,-678.22C56.13,-697.22 67.64,-727.57 76.06,-749.79"/>
<polygon fill="black" stroke="black" points="72.68,-750.73 79.5,-758.84 79.22,-748.25 72.68,-750.73"/>
</g>
<!-- 15 -->
<g id="node16" class="node">
<title>15</title>
<ellipse fill="none" stroke="black" cx="158.12" cy="-881.34" rx="27" ry="18"/>
<text text-anchor="middle" x="158.12" y="-876.67" font-family="Times,serif" font-size="14.00">O</text>
</g>
<!-- 14&#45;&gt;15 -->
<g id="edge15" class="edge">
<title>14&#45;&gt;15</title>
<path fill="none" stroke="black" d="M98.19,-794.51C109.54,-810.95 127.07,-836.35 140.24,-855.43"/>
<polygon fill="black" stroke="black" points="137.26,-857.27 145.82,-863.51 143.02,-853.3 137.26,-857.27"/>
</g>
<!-- 15&#45;&gt;0 -->
<g id="edge28" class="edge">
<title>15&#45;&gt;0</title>
<path fill="none" stroke="black" d="M179.4,-870.17C298.39,-807.72 881.17,-501.84 1023.3,-427.24"/>
<polygon fill="black" stroke="black" points="1024.56,-430.53 1031.78,-422.78 1021.3,-424.33 1024.56,-430.53"/>
</g>
<!-- 16 -->
<g id="node17" class="node">
<title>16</title>
<ellipse fill="none" stroke="black" cx="252.21" cy="-964.69" rx="27" ry="18"/>
<text text-anchor="middle" x="252.21" y="-960.02" font-family="Times,serif" font-size="14.00">P</text>
</g>
<!-- 15&#45;&gt;16 -->
<g id="edge16" class="edge">
<title>15&#45;&gt;16</title>
<path fill="none" stroke="black" d="M174.51,-895.86C189.13,-908.81 210.73,-927.95 227.46,-942.76"/>
<polygon fill="black" stroke="black" points="224.75,-945.04 234.56,-949.05 229.4,-939.8 224.75,-945.04"/>
</g>
<!-- 16&#45;&gt;17 -->
<g id="edge17" class="edge">
<title>16&#45;&gt;17</title>
<path fill="none" stroke="black" d="M273.67,-975.95C290.22,-984.64 313.36,-996.78 332.01,-1006.57"/>
<polygon fill="black" stroke="black" points="330.29,-1009.62 340.77,-1011.17 333.54,-1003.42 330.29,-1009.62"/>
</g>
<!-- 17&#45;&gt;18 -->
<g id="edge18" class="edge">
<title>17&#45;&gt;18</title>
<path fill="none" stroke="black" d="M389.08,-1029.41C406.41,-1033.68 429.58,-1039.4 448.86,-1044.15"/>
<polygon fill="black" stroke="black" points="447.97,-1047.54 458.52,-1046.54 449.65,-1040.74 447.97,-1047.54"/>
</g>
<!-- 25 -->
<g id="node26" class="node">
<title>25</title>
<ellipse fill="none" stroke="black" cx="1069.8" cy="-535.59" rx="27" ry="18"/>
<text text-anchor="middle" x="1069.8" y="-530.92" font-family="Times,serif" font-size="14.00">Y</text>
</g>
<!-- 17&#45;&gt;25 -->
<g id="edge32" class="edge">
<title>17&#45;&gt;25</title>
<path fill="none" stroke="black" d="M382.39,-1010.06C479.7,-942.89 924.35,-635.99 1041.46,-555.15"/>
<polygon fill="black" stroke="black" points="1043.36,-558.09 1049.6,-549.53 1039.39,-552.33 1043.36,-558.09"/>
</g>
<!-- 18&#45;&gt;7 -->
<g id="edge30" class="edge">
<title>18&#45;&gt;7</title>
<path fill="none" stroke="black" d="M483.32,-1034.9C468.61,-913.79 385.36,-228.09 367.06,-77.37"/>
<polygon fill="black" stroke="black" points="370.58,-77.34 365.9,-67.83 363.63,-78.18 370.58,-77.34"/>
</g>
<!-- 19 -->
<g id="node20" class="node">
<title>19</title>
<ellipse fill="none" stroke="black" cx="611.24" cy="-1053.2" rx="27" ry="18"/>
<text text-anchor="middle" x="611.24" y="-1048.53" font-family="Times,serif" font-size="14.00">S</text>
</g>
<!-- 18&#45;&gt;19 -->
<g id="edge19" class="edge">
<title>18&#45;&gt;19</title>
<path fill="none" stroke="black" d="M512.82,-1053.2C530.28,-1053.2 553.2,-1053.2 572.53,-1053.2"/>
<polygon fill="black" stroke="black" points="572.5,-1056.7 582.5,-1053.2 572.5,-1049.7 572.5,-1056.7"/>
</g>
<!-- 19&#45;&gt;15 -->
<g id="edge29" class="edge">
<title>19&#45;&gt;15</title>
<path fill="none" stroke="black" d="M587.52,-1044.2C512.59,-1015.78 280.77,-927.86 192.62,-894.43"/>
<polygon fill="black" stroke="black" points="193.89,-891.16 183.3,-890.89 191.41,-897.71 193.89,-891.16"/>
</g>
<!-- 20 -->
<g id="node21" class="node">
<title>20</title>
<ellipse fill="none" stroke="black" cx="733.28" cy="-1023.1" rx="27" ry="18"/>
<text text-anchor="middle" x="733.28" y="-1018.42" font-family="Times,serif" font-size="14.00">T</text>
</g>
<!-- 19&#45;&gt;20 -->
<g id="edge20" class="edge">
<title>19&#45;&gt;20</title>
<path fill="none" stroke="black" d="M636.82,-1046.89C654.15,-1042.62 677.32,-1036.9 696.6,-1032.15"/>
<polygon fill="black" stroke="black" points="697.39,-1035.56 706.26,-1029.76 695.71,-1028.76 697.39,-1035.56"/>
</g>
<!-- 21 -->
<g id="node22" class="node">
<title>21</title>
<ellipse fill="none" stroke="black" cx="844.58" cy="-964.69" rx="27" ry="18"/>
<text text-anchor="middle" x="844.58" y="-960.02" font-family="Times,serif" font-size="14.00">U</text>
</g>
<!-- 20&#45;&gt;21 -->
<g id="edge21" class="edge">
<title>20&#45;&gt;21</title>
<path fill="none" stroke="black" d="M754.74,-1011.84C771.29,-1003.15 794.43,-991.01 813.08,-981.22"/>
<polygon fill="black" stroke="black" points="814.62,-984.37 821.85,-976.62 811.36,-978.17 814.62,-984.37"/>
</g>
<!-- 22 -->
<g id="node23" class="node">
<title>22</title>
<ellipse fill="none" stroke="black" cx="938.66" cy="-881.34" rx="27" ry="18"/>
<text text-anchor="middle" x="938.66" y="-876.67" font-family="Times,serif" font-size="14.00">V</text>
</g>
<!-- 21&#45;&gt;22 -->
<g id="edge22" class="edge">
<title>21&#45;&gt;22</title>
<path fill="none" stroke="black" d="M860.97,-950.17C875.58,-937.22 897.19,-918.08 913.91,-903.27"/>
<polygon fill="black" stroke="black" points="915.85,-906.23 921.01,-896.98 911.21,-900.99 915.85,-906.23"/>
</g>
<!-- 23 -->
<g id="node24" class="node">
<title>23</title>
<ellipse fill="none" stroke="black" cx="1010.1" cy="-777.89" rx="27" ry="18"/>
<text text-anchor="middle" x="1010.1" y="-773.22" font-family="Times,serif" font-size="14.00">W</text>
</g>
<!-- 22&#45;&gt;23 -->
<g id="edge23" class="edge">
<title>22&#45;&gt;23</title>
<path fill="none" stroke="black" d="M950.14,-864.72C961.49,-848.28 979.03,-822.88 992.21,-803.8"/>
<polygon fill="black" stroke="black" points="994.99,-805.93 997.79,-795.72 989.23,-801.95 994.99,-805.93"/>
</g>
<!-- 24 -->
<g id="node25" class="node">
<title>24</title>
<ellipse fill="none" stroke="black" cx="1054.6" cy="-660.37" rx="27" ry="18"/>
<text text-anchor="middle" x="1054.6" y="-655.7" font-family="Times,serif" font-size="14.00">X</text>
</g>
<!-- 23&#45;&gt;24 -->
<g id="edge24" class="edge">
<title>23&#45;&gt;24</title>
<path fill="none" stroke="black" d="M1016.86,-760.04C1024.06,-741.04 1035.54,-710.69 1043.96,-688.47"/>
<polygon fill="black" stroke="black" points="1047.12,-690.01 1047.39,-679.42 1040.57,-687.53 1047.12,-690.01"/>
</g>
<!-- 24&#45;&gt;25 -->
<g id="edge25" class="edge">
<title>24&#45;&gt;25</title>
<path fill="none" stroke="black" d="M1056.84,-641.96C1059.32,-621.66 1063.33,-588.73 1066.23,-564.88"/>
<polygon fill="black" stroke="black" points="1069.68,-565.52 1067.41,-555.17 1062.73,-564.68 1069.68,-565.52"/>
</g>
<!-- 25&#45;&gt;0 -->
<g id="edge26" class="edge">
<title>25&#45;&gt;0</title>
<path fill="none" stroke="black" d="M1067.56,-517.18C1065.08,-496.88 1061.07,-463.95 1058.17,-440.1"/>
<polygon fill="black" stroke="black" points="1061.67,-439.9 1056.99,-430.39 1054.72,-440.74 1061.67,-439.9"/>
</g>
<!-- 25&#45;&gt;19 -->
<g id="edge31" class="edge">
<title>25&#45;&gt;19</title>
<path fill="none" stroke="black" d="M1055.83,-551.36C990.09,-625.57 711.51,-940.01 632.32,-1029.41"/>
<polygon fill="black" stroke="black" points="629.9,-1026.86 625.89,-1036.67 635.14,-1031.5 629.9,-1026.86"/>
</g>
</g>
</svg>
