<?xml version="1.0" encoding="UTF-8" standalone="no"?>
<!DOCTYPE svg PUBLIC "-//W3C//DTD SVG 1.1//EN"
 "http://www.w3.org/Graphics/SVG/1.1/DTD/svg11.dtd">
<!-- Generated by graphviz version 9.0.0 (0)
 -->
<!-- Title: G Pages: 1 -->
<svg width="301pt" height="1844pt"
 viewBox="0.00 0.00 301.00 1844.00" xmlns="http://www.w3.org/2000/svg" xmlns:xlink="http://www.w3.org/1999/xlink">
<g id="graph0" class="graph" transform="scale(1 1) rotate(0) translate(4 1840)">
<title>G</title>
<polygon fill="white" stroke="none" points="-4,4 -4,-1840 297,-1840 297,4 -4,4"/>
<!-- 0 -->
<g id="node1" class="node">
<title>0</title>
<ellipse fill="none" stroke="black" cx="188" cy="-1818" rx="27" ry="18"/>
<text text-anchor="middle" x="188" y="-1813.33" font-family="Times,serif" font-size="14.00">0</text>
</g>
<!-- 1 -->
<g id="node2" class="node">
<title>1</title>
<ellipse fill="none" stroke="black" cx="161" cy="-1746" rx="27" ry="18"/>
<text text-anchor="middle" x="161" y="-1741.33" font-family="Times,serif" font-size="14.00">1</text>
</g>
<!-- 0&#45;&gt;1 -->
<g id="edge1" class="edge">
<title>0&#45;&gt;1</title>
<path fill="none" stroke="black" d="M181.46,-1800.05C178.48,-1792.32 174.87,-1782.96 171.52,-1774.27"/>
<polygon fill="black" stroke="black" points="174.88,-1773.27 168.02,-1765.2 168.35,-1775.79 174.88,-1773.27"/>
</g>
<!-- 14 -->
<g id="node15" class="node">
<title>14</title>
<ellipse fill="none" stroke="black" cx="131" cy="-810" rx="27" ry="18"/>
<text text-anchor="middle" x="131" y="-805.33" font-family="Times,serif" font-size="14.00">14</text>
</g>
<!-- 0&#45;&gt;14 -->
<g id="edge27" class="edge">
<title>0&#45;&gt;14</title>
<path fill="none" stroke="black" d="M191.91,-1799.91C199.83,-1763.77 217,-1676.86 217,-1603 217,-1603 217,-1603 217,-1313 217,-1112.21 236.56,-1052.35 167,-864 163.25,-853.84 157.14,-843.74 151.02,-835.13"/>
<polygon fill="black" stroke="black" points="153.94,-833.2 145.13,-827.32 148.35,-837.41 153.94,-833.2"/>
</g>
<!-- 2 -->
<g id="node3" class="node">
<title>2</title>
<ellipse fill="none" stroke="black" cx="160" cy="-1674" rx="27" ry="18"/>
<text text-anchor="middle" x="160" y="-1669.33" font-family="Times,serif" font-size="14.00">2</text>
</g>
<!-- 1&#45;&gt;2 -->
<g id="edge2" class="edge">
<title>1&#45;&gt;2</title>
<path fill="none" stroke="black" d="M160.75,-1727.7C160.65,-1720.41 160.52,-1711.73 160.41,-1703.54"/>
<polygon fill="black" stroke="black" points="163.91,-1703.57 160.27,-1693.62 156.91,-1703.67 163.91,-1703.57"/>
</g>
<!-- 3 -->
<g id="node4" class="node">
<title>3</title>
<ellipse fill="none" stroke="black" cx="159" cy="-1602" rx="27" ry="18"/>
<text text-anchor="middle" x="159" y="-1597.33" font-family="Times,serif" font-size="14.00">3</text>
</g>
<!-- 2&#45;&gt;3 -->
<g id="edge3" class="edge">
<title>2&#45;&gt;3</title>
<path fill="none" stroke="black" d="M159.75,-1655.7C159.65,-1648.41 159.52,-1639.73 159.41,-1631.54"/>
<polygon fill="black" stroke="black" points="162.91,-1631.57 159.27,-1621.62 155.91,-1631.67 162.91,-1631.57"/>
</g>
<!-- 4 -->
<g id="node5" class="node">
<title>4</title>
<ellipse fill="none" stroke="black" cx="157" cy="-1530" rx="27" ry="18"/>
<text text-anchor="middle" x="157" y="-1525.33" font-family="Times,serif" font-size="14.00">4</text>
</g>
<!-- 3&#45;&gt;4 -->
<g id="edge4" class="edge">
<title>3&#45;&gt;4</title>
<path fill="none" stroke="black" d="M158.51,-1583.7C158.3,-1576.41 158.05,-1567.73 157.82,-1559.54"/>
<polygon fill="black" stroke="black" points="161.32,-1559.51 157.53,-1549.62 154.32,-1559.71 161.32,-1559.51"/>
</g>
<!-- 5 -->
<g id="node6" class="node">
<title>5</title>
<ellipse fill="none" stroke="black" cx="152" cy="-1458" rx="27" ry="18"/>
<text text-anchor="middle" x="152" y="-1453.33" font-family="Times,serif" font-size="14.00">5</text>
</g>
<!-- 4&#45;&gt;5 -->
<g id="edge5" class="edge">
<title>4&#45;&gt;5</title>
<path fill="none" stroke="black" d="M155.76,-1511.7C155.24,-1504.41 154.62,-1495.73 154.04,-1487.54"/>
<polygon fill="black" stroke="black" points="157.53,-1487.34 153.33,-1477.61 150.55,-1487.84 157.53,-1487.34"/>
</g>
<!-- 6 -->
<g id="node7" class="node">
<title>6</title>
<ellipse fill="none" stroke="black" cx="143" cy="-1386" rx="27" ry="18"/>
<text text-anchor="middle" x="143" y="-1381.33" font-family="Times,serif" font-size="14.00">6</text>
</g>
<!-- 5&#45;&gt;6 -->
<g id="edge6" class="edge">
<title>5&#45;&gt;6</title>
<path fill="none" stroke="black" d="M149.78,-1439.7C148.83,-1432.32 147.7,-1423.52 146.63,-1415.25"/>
<polygon fill="black" stroke="black" points="150.14,-1415.08 145.39,-1405.61 143.2,-1415.97 150.14,-1415.08"/>
</g>
<!-- 7 -->
<g id="node8" class="node">
<title>7</title>
<ellipse fill="none" stroke="black" cx="124" cy="-1314" rx="27" ry="18"/>
<text text-anchor="middle" x="124" y="-1309.33" font-family="Times,serif" font-size="14.00">7</text>
</g>
<!-- 6&#45;&gt;7 -->
<g id="edge7" class="edge">
<title>6&#45;&gt;7</title>
<path fill="none" stroke="black" d="M138.4,-1368.05C136.35,-1360.49 133.87,-1351.37 131.56,-1342.85"/>
<polygon fill="black" stroke="black" points="134.95,-1341.98 128.95,-1333.25 128.2,-1343.82 134.95,-1341.98"/>
</g>
<!-- 8 -->
<g id="node9" class="node">
<title>8</title>
<ellipse fill="none" stroke="black" cx="124" cy="-1242" rx="27" ry="18"/>
<text text-anchor="middle" x="124" y="-1237.33" font-family="Times,serif" font-size="14.00">8</text>
</g>
<!-- 7&#45;&gt;8 -->
<g id="edge8" class="edge">
<title>7&#45;&gt;8</title>
<path fill="none" stroke="black" d="M124,-1295.7C124,-1288.41 124,-1279.73 124,-1271.54"/>
<polygon fill="black" stroke="black" points="127.5,-1271.62 124,-1261.62 120.5,-1271.62 127.5,-1271.62"/>
</g>
<!-- 9 -->
<g id="node10" class="node">
<title>9</title>
<ellipse fill="none" stroke="black" cx="126" cy="-1170" rx="27" ry="18"/>
<text text-anchor="middle" x="126" y="-1165.33" font-family="Times,serif" font-size="14.00">9</text>
</g>
<!-- 7&#45;&gt;9 -->
<g id="edge34" class="edge">
<title>7&#45;&gt;9</title>
<path fill="none" stroke="black" d="M137.75,-1298.07C145.96,-1288.1 155.62,-1274.25 160,-1260 164.7,-1244.71 164.5,-1239.35 160,-1224 157.04,-1213.9 151.49,-1203.89 145.73,-1195.35"/>
<polygon fill="black" stroke="black" points="148.59,-1193.33 139.89,-1187.29 142.92,-1197.44 148.59,-1193.33"/>
</g>
<!-- 8&#45;&gt;9 -->
<g id="edge9" class="edge">
<title>8&#45;&gt;9</title>
<path fill="none" stroke="black" d="M124.49,-1223.7C124.7,-1216.41 124.95,-1207.73 125.18,-1199.54"/>
<polygon fill="black" stroke="black" points="128.68,-1199.71 125.47,-1189.62 121.68,-1199.51 128.68,-1199.71"/>
</g>
<!-- 18 -->
<g id="node19" class="node">
<title>18</title>
<ellipse fill="none" stroke="black" cx="148" cy="-522" rx="27" ry="18"/>
<text text-anchor="middle" x="148" y="-517.33" font-family="Times,serif" font-size="14.00">18</text>
</g>
<!-- 8&#45;&gt;18 -->
<g id="edge35" class="edge">
<title>8&#45;&gt;18</title>
<path fill="none" stroke="black" d="M112.76,-1225.23C89.45,-1190.94 38,-1106.28 38,-1027 38,-1027 38,-1027 38,-737 38,-660.94 55.55,-640.41 96,-576 103.35,-564.3 113.66,-553.11 123.16,-544.05"/>
<polygon fill="black" stroke="black" points="125.42,-546.72 130.44,-537.39 120.7,-541.56 125.42,-546.72"/>
</g>
<!-- 10 -->
<g id="node11" class="node">
<title>10</title>
<ellipse fill="none" stroke="black" cx="131" cy="-1098" rx="27" ry="18"/>
<text text-anchor="middle" x="131" y="-1093.33" font-family="Times,serif" font-size="14.00">10</text>
</g>
<!-- 9&#45;&gt;10 -->
<g id="edge10" class="edge">
<title>9&#45;&gt;10</title>
<path fill="none" stroke="black" d="M127.24,-1151.7C127.76,-1144.41 128.38,-1135.73 128.96,-1127.54"/>
<polygon fill="black" stroke="black" points="132.45,-1127.84 129.67,-1117.61 125.47,-1127.34 132.45,-1127.84"/>
</g>
<!-- 17 -->
<g id="node18" class="node">
<title>17</title>
<ellipse fill="none" stroke="black" cx="132" cy="-594" rx="27" ry="18"/>
<text text-anchor="middle" x="132" y="-589.33" font-family="Times,serif" font-size="14.00">17</text>
</g>
<!-- 9&#45;&gt;17 -->
<g id="edge33" class="edge">
<title>9&#45;&gt;17</title>
<path fill="none" stroke="black" d="M115.11,-1153.44C108.41,-1143.22 100.16,-1129.32 95,-1116 80.38,-1078.29 76,-1067.45 76,-1027 76,-1027 76,-1027 76,-737 76,-696.55 78.88,-685.1 95,-648 99.35,-637.98 105.75,-627.92 112,-619.29"/>
<polygon fill="black" stroke="black" points="114.7,-621.52 117.97,-611.45 109.13,-617.29 114.7,-621.52"/>
</g>
<!-- 11 -->
<g id="node12" class="node">
<title>11</title>
<ellipse fill="none" stroke="black" cx="131" cy="-1026" rx="27" ry="18"/>
<text text-anchor="middle" x="131" y="-1021.33" font-family="Times,serif" font-size="14.00">11</text>
</g>
<!-- 10&#45;&gt;11 -->
<g id="edge11" class="edge">
<title>10&#45;&gt;11</title>
<path fill="none" stroke="black" d="M131,-1079.7C131,-1072.41 131,-1063.73 131,-1055.54"/>
<polygon fill="black" stroke="black" points="134.5,-1055.62 131,-1045.62 127.5,-1055.62 134.5,-1055.62"/>
</g>
<!-- 12 -->
<g id="node13" class="node">
<title>12</title>
<ellipse fill="none" stroke="black" cx="131" cy="-954" rx="27" ry="18"/>
<text text-anchor="middle" x="131" y="-949.33" font-family="Times,serif" font-size="14.00">12</text>
</g>
<!-- 11&#45;&gt;12 -->
<g id="edge12" class="edge">
<title>11&#45;&gt;12</title>
<path fill="none" stroke="black" d="M131,-1007.7C131,-1000.41 131,-991.73 131,-983.54"/>
<polygon fill="black" stroke="black" points="134.5,-983.62 131,-973.62 127.5,-983.62 134.5,-983.62"/>
</g>
<!-- 13 -->
<g id="node14" class="node">
<title>13</title>
<ellipse fill="none" stroke="black" cx="131" cy="-882" rx="27" ry="18"/>
<text text-anchor="middle" x="131" y="-877.33" font-family="Times,serif" font-size="14.00">13</text>
</g>
<!-- 12&#45;&gt;13 -->
<g id="edge13" class="edge">
<title>12&#45;&gt;13</title>
<path fill="none" stroke="black" d="M131,-935.7C131,-928.41 131,-919.73 131,-911.54"/>
<polygon fill="black" stroke="black" points="134.5,-911.62 131,-901.62 127.5,-911.62 134.5,-911.62"/>
</g>
<!-- 13&#45;&gt;14 -->
<g id="edge14" class="edge">
<title>13&#45;&gt;14</title>
<path fill="none" stroke="black" d="M131,-863.7C131,-856.41 131,-847.73 131,-839.54"/>
<polygon fill="black" stroke="black" points="134.5,-839.62 131,-829.62 127.5,-839.62 134.5,-839.62"/>
</g>
<!-- 15 -->
<g id="node16" class="node">
<title>15</title>
<ellipse fill="none" stroke="black" cx="131" cy="-738" rx="27" ry="18"/>
<text text-anchor="middle" x="131" y="-733.33" font-family="Times,serif" font-size="14.00">15</text>
</g>
<!-- 14&#45;&gt;15 -->
<g id="edge15" class="edge">
<title>14&#45;&gt;15</title>
<path fill="none" stroke="black" d="M131,-791.7C131,-784.41 131,-775.73 131,-767.54"/>
<polygon fill="black" stroke="black" points="134.5,-767.62 131,-757.62 127.5,-767.62 134.5,-767.62"/>
</g>
<!-- 15&#45;&gt;0 -->
<g id="edge28" class="edge">
<title>15&#45;&gt;0</title>
<path fill="none" stroke="black" d="M151.48,-750.05C186.7,-770.72 255,-818.81 255,-881 255,-955 255,-955 255,-955 255,-1114.11 255,-1153.89 255,-1313 255,-1675 255,-1675 255,-1675 255,-1719.91 227.25,-1765.84 207.46,-1792.86"/>
<polygon fill="black" stroke="black" points="204.76,-1790.64 201.52,-1800.72 210.34,-1794.86 204.76,-1790.64"/>
</g>
<!-- 16 -->
<g id="node17" class="node">
<title>16</title>
<ellipse fill="none" stroke="black" cx="131" cy="-666" rx="27" ry="18"/>
<text text-anchor="middle" x="131" y="-661.33" font-family="Times,serif" font-size="14.00">16</text>
</g>
<!-- 15&#45;&gt;16 -->
<g id="edge16" class="edge">
<title>15&#45;&gt;16</title>
<path fill="none" stroke="black" d="M131,-719.7C131,-712.41 131,-703.73 131,-695.54"/>
<polygon fill="black" stroke="black" points="134.5,-695.62 131,-685.62 127.5,-695.62 134.5,-695.62"/>
</g>
<!-- 16&#45;&gt;17 -->
<g id="edge17" class="edge">
<title>16&#45;&gt;17</title>
<path fill="none" stroke="black" d="M131.25,-647.7C131.35,-640.41 131.48,-631.73 131.59,-623.54"/>
<polygon fill="black" stroke="black" points="135.09,-623.67 131.73,-613.62 128.09,-623.57 135.09,-623.67"/>
</g>
<!-- 17&#45;&gt;18 -->
<g id="edge18" class="edge">
<title>17&#45;&gt;18</title>
<path fill="none" stroke="black" d="M135.96,-575.7C137.64,-568.32 139.65,-559.52 141.54,-551.25"/>
<polygon fill="black" stroke="black" points="144.94,-552.11 143.75,-541.58 138.11,-550.55 144.94,-552.11"/>
</g>
<!-- 25 -->
<g id="node26" class="node">
<title>25</title>
<ellipse fill="none" stroke="black" cx="189" cy="-18" rx="27" ry="18"/>
<text text-anchor="middle" x="189" y="-13.32" font-family="Times,serif" font-size="14.00">25</text>
</g>
<!-- 17&#45;&gt;25 -->
<g id="edge32" class="edge">
<title>17&#45;&gt;25</title>
<path fill="none" stroke="black" d="M148.68,-579.77C160.1,-569.91 174.79,-555.52 184,-540 239.27,-446.92 255,-415.26 255,-307 255,-307 255,-307 255,-161 255,-116.21 227.66,-70.25 208.17,-43.18"/>
<polygon fill="black" stroke="black" points="211.1,-41.25 202.32,-35.32 205.48,-45.43 211.1,-41.25"/>
</g>
<!-- 18&#45;&gt;7 -->
<g id="edge30" class="edge">
<title>18&#45;&gt;7</title>
<path fill="none" stroke="black" d="M126.36,-533.41C109.18,-542.6 85.54,-557.41 70,-576 19.97,-635.87 0,-658.97 0,-737 0,-1027 0,-1027 0,-1027 0,-1131.33 70.32,-1240.72 105.05,-1288.38"/>
<polygon fill="black" stroke="black" points="102.21,-1290.43 110.98,-1296.38 107.84,-1286.26 102.21,-1290.43"/>
</g>
<!-- 19 -->
<g id="node20" class="node">
<title>19</title>
<ellipse fill="none" stroke="black" cx="162" cy="-450" rx="27" ry="18"/>
<text text-anchor="middle" x="162" y="-445.32" font-family="Times,serif" font-size="14.00">19</text>
</g>
<!-- 18&#45;&gt;19 -->
<g id="edge19" class="edge">
<title>18&#45;&gt;19</title>
<path fill="none" stroke="black" d="M151.46,-503.7C152.94,-496.32 154.7,-487.52 156.35,-479.25"/>
<polygon fill="black" stroke="black" points="159.75,-480.08 158.28,-469.59 152.89,-478.71 159.75,-480.08"/>
</g>
<!-- 19&#45;&gt;15 -->
<g id="edge29" class="edge">
<title>19&#45;&gt;15</title>
<path fill="none" stroke="black" d="M170.68,-467.18C175.66,-477.41 181.43,-491.1 184,-504 199.71,-582.81 195.09,-608.71 167,-684 163.21,-694.15 157.1,-704.24 150.98,-712.86"/>
<polygon fill="black" stroke="black" points="148.32,-710.57 145.1,-720.67 153.91,-714.78 148.32,-710.57"/>
</g>
<!-- 20 -->
<g id="node21" class="node">
<title>20</title>
<ellipse fill="none" stroke="black" cx="162" cy="-378" rx="27" ry="18"/>
<text text-anchor="middle" x="162" y="-373.32" font-family="Times,serif" font-size="14.00">20</text>
</g>
<!-- 19&#45;&gt;20 -->
<g id="edge20" class="edge">
<title>19&#45;&gt;20</title>
<path fill="none" stroke="black" d="M162,-431.7C162,-424.41 162,-415.73 162,-407.54"/>
<polygon fill="black" stroke="black" points="165.5,-407.62 162,-397.62 158.5,-407.62 165.5,-407.62"/>
</g>
<!-- 21 -->
<g id="node22" class="node">
<title>21</title>
<ellipse fill="none" stroke="black" cx="162" cy="-306" rx="27" ry="18"/>
<text text-anchor="middle" x="162" y="-301.32" font-family="Times,serif" font-size="14.00">21</text>
</g>
<!-- 20&#45;&gt;21 -->
<g id="edge21" class="edge">
<title>20&#45;&gt;21</title>
<path fill="none" stroke="black" d="M162,-359.7C162,-352.41 162,-343.73 162,-335.54"/>
<polygon fill="black" stroke="black" points="165.5,-335.62 162,-325.62 158.5,-335.62 165.5,-335.62"/>
</g>
<!-- 22 -->
<g id="node23" class="node">
<title>22</title>
<ellipse fill="none" stroke="black" cx="162" cy="-234" rx="27" ry="18"/>
<text text-anchor="middle" x="162" y="-229.32" font-family="Times,serif" font-size="14.00">22</text>
</g>
<!-- 21&#45;&gt;22 -->
<g id="edge22" class="edge">
<title>21&#45;&gt;22</title>
<path fill="none" stroke="black" d="M162,-287.7C162,-280.41 162,-271.73 162,-263.54"/>
<polygon fill="black" stroke="black" points="165.5,-263.62 162,-253.62 158.5,-263.62 165.5,-263.62"/>
</g>
<!-- 23 -->
<g id="node24" class="node">
<title>23</title>
<ellipse fill="none" stroke="black" cx="162" cy="-162" rx="27" ry="18"/>
<text text-anchor="middle" x="162" y="-157.32" font-family="Times,serif" font-size="14.00">23</text>
</g>
<!-- 22&#45;&gt;23 -->
<g id="edge23" class="edge">
<title>22&#45;&gt;23</title>
<path fill="none" stroke="black" d="M162,-215.7C162,-208.41 162,-199.73 162,-191.54"/>
<polygon fill="black" stroke="black" points="165.5,-191.62 162,-181.62 158.5,-191.62 165.5,-191.62"/>
</g>
<!-- 24 -->
<g id="node25" class="node">
<title>24</title>
<ellipse fill="none" stroke="black" cx="162" cy="-90" rx="27" ry="18"/>
<text text-anchor="middle" x="162" y="-85.33" font-family="Times,serif" font-size="14.00">24</text>
</g>
<!-- 23&#45;&gt;24 -->
<g id="edge24" class="edge">
<title>23&#45;&gt;24</title>
<path fill="none" stroke="black" d="M162,-143.7C162,-136.41 162,-127.73 162,-119.54"/>
<polygon fill="black" stroke="black" points="165.5,-119.62 162,-109.62 158.5,-119.62 165.5,-119.62"/>
</g>
<!-- 24&#45;&gt;25 -->
<g id="edge25" class="edge">
<title>24&#45;&gt;25</title>
<path fill="none" stroke="black" d="M168.54,-72.05C171.52,-64.32 175.13,-54.96 178.48,-46.27"/>
<polygon fill="black" stroke="black" points="181.65,-47.79 181.98,-37.2 175.12,-45.27 181.65,-47.79"/>
</g>
<!-- 25&#45;&gt;0 -->
<g id="edge26" class="edge">
<title>25&#45;&gt;0</title>
<path fill="none" stroke="black" d="M207.12,-31.57C236.91,-53.9 293,-103.55 293,-161 293,-1675 293,-1675 293,-1675 293,-1727.24 246.49,-1772.84 215.38,-1797.5"/>
<polygon fill="black" stroke="black" points="213.3,-1794.69 207.49,-1803.55 217.56,-1800.24 213.3,-1794.69"/>
</g>
<!-- 25&#45;&gt;19 -->
<g id="edge31" class="edge">
<title>25&#45;&gt;19</title>
<path fill="none" stroke="black" d="M194.53,-35.84C202.69,-62.21 217,-115.02 217,-161 217,-307 217,-307 217,-307 217,-347.45 213.88,-358.8 198,-396 193.75,-405.96 187.52,-416.01 181.44,-424.64"/>
<polygon fill="black" stroke="black" points="178.77,-422.36 175.65,-432.48 184.4,-426.52 178.77,-422.36"/>
</g>
</g>
</svg>
