<?xml version="1.0" encoding="UTF-8" standalone="no"?>
<!DOCTYPE svg PUBLIC "-//W3C//DTD SVG 1.1//EN"
 "http://www.w3.org/Graphics/SVG/1.1/DTD/svg11.dtd">
<!-- Generated by graphviz version 9.0.0 (0)
 -->
<!-- Title: G Pages: 1 -->
<svg width="1105pt" height="1079pt"
 viewBox="0.00 0.00 1104.78 1079.18" xmlns="http://www.w3.org/2000/svg" xmlns:xlink="http://www.w3.org/1999/xlink">
<g id="graph0" class="graph" transform="scale(1 1) rotate(0) translate(4 1075.18)">
<title>G</title>
<polygon fill="white" stroke="none" points="-4,4 -4,-1075.18 1100.78,-1075.18 1100.78,4 -4,4"/>
<!-- 0 -->
<g id="node1" class="node">
<title>0</title>
<ellipse fill="none" stroke="black" cx="363.5" cy="-1023.1" rx="27" ry="18"/>
<text text-anchor="middle" x="363.5" y="-1018.42" font-family="Times,serif" font-size="14.00">0</text>
</g>
<!-- 1 -->
<g id="node2" class="node">
<title>1</title>
<ellipse fill="none" stroke="black" cx="1054.63" cy="-410.81" rx="27" ry="18"/>
<text text-anchor="middle" x="1054.63" y="-406.14" font-family="Times,serif" font-size="14.00">1</text>
</g>
<!-- 0&#45;&gt;1 -->
<g id="edge1" class="edge">
<title>0&#45;&gt;1</title>
<path fill="none" stroke="black" d="M379.91,-1008.57C471.37,-927.54 918.23,-531.65 1029.5,-433.08"/>
<polygon fill="black" stroke="black" points="1031.78,-435.73 1036.94,-426.48 1027.14,-430.5 1031.78,-435.73"/>
</g>
<!-- 14 -->
<g id="node15" class="node">
<title>14</title>
<ellipse fill="none" stroke="black" cx="252.21" cy="-964.69" rx="27" ry="18"/>
<text text-anchor="middle" x="252.21" y="-960.01" font-family="Times,serif" font-size="14.00">14</text>
</g>
<!-- 0&#45;&gt;14 -->
<g id="edge27" class="edge">
<title>0&#45;&gt;14</title>
<path fill="none" stroke="black" d="M342.04,-1011.84C325.49,-1003.15 302.35,-991.01 283.7,-981.22"/>
<polygon fill="black" stroke="black" points="285.42,-978.17 274.94,-976.62 282.17,-984.36 285.42,-978.17"/>
</g>
<!-- 2 -->
<g id="node3" class="node">
<title>2</title>
<ellipse fill="none" stroke="black" cx="1010.06" cy="-293.29" rx="27" ry="18"/>
<text text-anchor="middle" x="1010.06" y="-288.61" font-family="Times,serif" font-size="14.00">2</text>
</g>
<!-- 1&#45;&gt;2 -->
<g id="edge2" class="edge">
<title>1&#45;&gt;2</title>
<path fill="none" stroke="black" d="M1047.86,-392.96C1040.65,-373.96 1029.15,-343.61 1020.72,-321.39"/>
<polygon fill="black" stroke="black" points="1024.1,-320.44 1017.28,-312.33 1017.56,-322.93 1024.1,-320.44"/>
</g>
<!-- 3 -->
<g id="node4" class="node">
<title>3</title>
<ellipse fill="none" stroke="black" cx="938.66" cy="-189.84" rx="27" ry="18"/>
<text text-anchor="middle" x="938.66" y="-185.17" font-family="Times,serif" font-size="14.00">3</text>
</g>
<!-- 2&#45;&gt;3 -->
<g id="edge3" class="edge">
<title>2&#45;&gt;3</title>
<path fill="none" stroke="black" d="M998.59,-276.67C987.24,-260.23 969.71,-234.83 956.54,-215.75"/>
<polygon fill="black" stroke="black" points="959.52,-213.91 950.96,-207.67 953.76,-217.89 959.52,-213.91"/>
</g>
<!-- 4 -->
<g id="node5" class="node">
<title>4</title>
<ellipse fill="none" stroke="black" cx="844.58" cy="-106.49" rx="27" ry="18"/>
<text text-anchor="middle" x="844.58" y="-101.82" font-family="Times,serif" font-size="14.00">4</text>
</g>
<!-- 3&#45;&gt;4 -->
<g id="edge4" class="edge">
<title>3&#45;&gt;4</title>
<path fill="none" stroke="black" d="M922.27,-175.32C907.66,-162.38 886.05,-143.23 869.33,-128.42"/>
<polygon fill="black" stroke="black" points="872.03,-126.14 862.22,-122.13 867.39,-131.38 872.03,-126.14"/>
</g>
<!-- 5 -->
<g id="node6" class="node">
<title>5</title>
<ellipse fill="none" stroke="black" cx="733.28" cy="-48.08" rx="27" ry="18"/>
<text text-anchor="middle" x="733.28" y="-43.41" font-family="Times,serif" font-size="14.00">5</text>
</g>
<!-- 4&#45;&gt;5 -->
<g id="edge5" class="edge">
<title>4&#45;&gt;5</title>
<path fill="none" stroke="black" d="M823.12,-95.23C806.57,-86.54 783.43,-74.4 764.78,-64.61"/>
<polygon fill="black" stroke="black" points="766.49,-61.56 756.01,-60.01 763.24,-67.76 766.49,-61.56"/>
</g>
<!-- 6 -->
<g id="node7" class="node">
<title>6</title>
<ellipse fill="none" stroke="black" cx="611.24" cy="-18" rx="27" ry="18"/>
<text text-anchor="middle" x="611.24" y="-13.32" font-family="Times,serif" font-size="14.00">6</text>
</g>
<!-- 5&#45;&gt;6 -->
<g id="edge6" class="edge">
<title>5&#45;&gt;6</title>
<path fill="none" stroke="black" d="M707.7,-41.77C690.37,-37.5 667.2,-31.79 647.91,-27.04"/>
<polygon fill="black" stroke="black" points="648.81,-23.65 638.26,-24.66 647.13,-30.45 648.81,-23.65"/>
</g>
<!-- 7 -->
<g id="node8" class="node">
<title>7</title>
<ellipse fill="none" stroke="black" cx="485.54" cy="-18" rx="27" ry="18"/>
<text text-anchor="middle" x="485.54" y="-13.33" font-family="Times,serif" font-size="14.00">7</text>
</g>
<!-- 6&#45;&gt;7 -->
<g id="edge7" class="edge">
<title>6&#45;&gt;7</title>
<path fill="none" stroke="black" d="M583.96,-18C566.51,-18 543.58,-18 524.26,-18"/>
<polygon fill="black" stroke="black" points="524.28,-14.5 514.28,-18 524.28,-21.5 524.28,-14.5"/>
</g>
<!-- 8 -->
<g id="node9" class="node">
<title>8</title>
<ellipse fill="none" stroke="black" cx="363.5" cy="-48.08" rx="27" ry="18"/>
<text text-anchor="middle" x="363.5" y="-43.41" font-family="Times,serif" font-size="14.00">8</text>
</g>
<!-- 7&#45;&gt;8 -->
<g id="edge8" class="edge">
<title>7&#45;&gt;8</title>
<path fill="none" stroke="black" d="M459.96,-24.31C442.63,-28.58 419.46,-34.29 400.18,-39.04"/>
<polygon fill="black" stroke="black" points="399.4,-35.63 390.52,-41.42 401.07,-42.43 399.4,-35.63"/>
</g>
<!-- 9 -->
<g id="node10" class="node">
<title>9</title>
<ellipse fill="none" stroke="black" cx="158.12" cy="-189.84" rx="27" ry="18"/>
<text text-anchor="middle" x="158.12" y="-185.17" font-family="Times,serif" font-size="14.00">9</text>
</g>
<!-- 7&#45;&gt;9 -->
<g id="edge34" class="edge">
<title>7&#45;&gt;9</title>
<path fill="none" stroke="black" d="M464.06,-29.28C407.75,-58.83 255.65,-138.66 189.53,-173.36"/>
<polygon fill="black" stroke="black" points="188.25,-170.08 181.03,-177.82 191.51,-176.28 188.25,-170.08"/>
</g>
<!-- 8&#45;&gt;9 -->
<g id="edge9" class="edge">
<title>8&#45;&gt;9</title>
<path fill="none" stroke="black" d="M344.55,-61.16C308.25,-86.22 228.76,-141.08 186.25,-170.43"/>
<polygon fill="black" stroke="black" points="184.52,-167.37 178.28,-175.93 188.5,-173.13 184.52,-167.37"/>
</g>
<!-- 18 -->
<g id="node19" class="node">
<title>18</title>
<ellipse fill="none" stroke="black" cx="252.21" cy="-106.49" rx="27" ry="18"/>
<text text-anchor="middle" x="252.21" y="-101.82" font-family="Times,serif" font-size="14.00">18</text>
</g>
<!-- 8&#45;&gt;18 -->
<g id="edge35" class="edge">
<title>8&#45;&gt;18</title>
<path fill="none" stroke="black" d="M342.04,-59.34C325.49,-68.03 302.35,-80.17 283.7,-89.96"/>
<polygon fill="black" stroke="black" points="282.17,-86.82 274.94,-94.56 285.42,-93.01 282.17,-86.82"/>
</g>
<!-- 10 -->
<g id="node11" class="node">
<title>10</title>
<ellipse fill="none" stroke="black" cx="27" cy="-535.59" rx="27" ry="18"/>
<text text-anchor="middle" x="27" y="-530.92" font-family="Times,serif" font-size="14.00">10</text>
</g>
<!-- 9&#45;&gt;10 -->
<g id="edge10" class="edge">
<title>9&#45;&gt;10</title>
<path fill="none" stroke="black" d="M151.44,-207.46C130.13,-263.65 63.68,-438.87 37.63,-507.56"/>
<polygon fill="black" stroke="black" points="34.48,-506 34.21,-516.59 41.02,-508.48 34.48,-506"/>
</g>
<!-- 17 -->
<g id="node18" class="node">
<title>17</title>
<ellipse fill="none" stroke="black" cx="86.72" cy="-293.29" rx="27" ry="18"/>
<text text-anchor="middle" x="86.72" y="-288.61" font-family="Times,serif" font-size="14.00">17</text>
</g>
<!-- 9&#45;&gt;17 -->
<g id="edge33" class="edge">
<title>9&#45;&gt;17</title>
<path fill="none" stroke="black" d="M146.65,-206.46C135.31,-222.9 117.78,-248.3 104.6,-267.38"/>
<polygon fill="black" stroke="black" points="101.83,-265.24 99.03,-275.46 107.59,-269.22 101.83,-265.24"/>
</g>
<!-- 11 -->
<g id="node12" class="node">
<title>11</title>
<ellipse fill="none" stroke="black" cx="42.15" cy="-660.37" rx="27" ry="18"/>
<text text-anchor="middle" x="42.15" y="-655.69" font-family="Times,serif" font-size="14.00">11</text>
</g>
<!-- 10&#45;&gt;11 -->
<g id="edge11" class="edge">
<title>10&#45;&gt;11</title>
<path fill="none" stroke="black" d="M29.24,-554C31.7,-574.3 35.7,-607.23 38.59,-631.08"/>
<polygon fill="black" stroke="black" points="35.09,-631.28 39.77,-640.78 42.04,-630.43 35.09,-631.28"/>
</g>
<!-- 12 -->
<g id="node13" class="node">
<title>12</title>
<ellipse fill="none" stroke="black" cx="86.72" cy="-777.89" rx="27" ry="18"/>
<text text-anchor="middle" x="86.72" y="-773.22" font-family="Times,serif" font-size="14.00">12</text>
</g>
<!-- 11&#45;&gt;12 -->
<g id="edge12" class="edge">
<title>11&#45;&gt;12</title>
<path fill="none" stroke="black" d="M48.92,-678.22C56.13,-697.22 67.64,-727.57 76.06,-749.79"/>
<polygon fill="black" stroke="black" points="72.68,-750.74 79.5,-758.85 79.22,-748.25 72.68,-750.74"/>
</g>
<!-- 13 -->
<g id="node14" class="node">
<title>13</title>
<ellipse fill="none" stroke="black" cx="158.12" cy="-881.34" rx="27" ry="18"/>
<text text-anchor="middle" x="158.12" y="-876.66" font-family="Times,serif" font-size="14.00">13</text>
</g>
<!-- 12&#45;&gt;13 -->
<g id="edge13" class="edge">
<title>12&#45;&gt;13</title>
<path fill="none" stroke="black" d="M98.19,-794.51C109.54,-810.95 127.07,-836.35 140.24,-855.43"/>
<polygon fill="black" stroke="black" points="137.26,-857.27 145.82,-863.51 143.02,-853.29 137.26,-857.27"/>
</g>
<!-- 13&#45;&gt;14 -->
<g id="edge14" class="edge">
<title>13&#45;&gt;14</title>
<path fill="none" stroke="black" d="M174.51,-895.86C189.13,-908.8 210.74,-927.95 227.46,-942.76"/>
<polygon fill="black" stroke="black" points="224.75,-945.04 234.56,-949.05 229.39,-939.8 224.75,-945.04"/>
</g>
<!-- 15 -->
<g id="node16" class="node">
<title>15</title>
<ellipse fill="none" stroke="black" cx="485.54" cy="-1053.18" rx="27" ry="18"/>
<text text-anchor="middle" x="485.54" y="-1048.51" font-family="Times,serif" font-size="14.00">15</text>
</g>
<!-- 14&#45;&gt;15 -->
<g id="edge15" class="edge">
<title>14&#45;&gt;15</title>
<path fill="none" stroke="black" d="M275.87,-973.66C317.36,-989.39 403.38,-1022.02 451.35,-1040.21"/>
<polygon fill="black" stroke="black" points="449.82,-1043.37 460.41,-1043.65 452.3,-1036.83 449.82,-1043.37"/>
</g>
<!-- 15&#45;&gt;0 -->
<g id="edge28" class="edge">
<title>15&#45;&gt;0</title>
<path fill="none" stroke="black" d="M459.96,-1046.87C442.63,-1042.6 419.46,-1036.89 400.18,-1032.14"/>
<polygon fill="black" stroke="black" points="401.07,-1028.75 390.52,-1029.76 399.4,-1035.55 401.07,-1028.75"/>
</g>
<!-- 16 -->
<g id="node17" class="node">
<title>16</title>
<ellipse fill="none" stroke="black" cx="42.15" cy="-410.81" rx="27" ry="18"/>
<text text-anchor="middle" x="42.15" y="-406.14" font-family="Times,serif" font-size="14.00">16</text>
</g>
<!-- 15&#45;&gt;16 -->
<g id="edge16" class="edge">
<title>15&#45;&gt;16</title>
<path fill="none" stroke="black" d="M474.14,-1036.66C414.06,-949.62 134.3,-544.31 60.2,-436.96"/>
<polygon fill="black" stroke="black" points="63.11,-435.01 54.54,-428.77 57.34,-438.99 63.11,-435.01"/>
</g>
<!-- 16&#45;&gt;17 -->
<g id="edge17" class="edge">
<title>16&#45;&gt;17</title>
<path fill="none" stroke="black" d="M48.92,-392.96C56.13,-373.96 67.64,-343.61 76.06,-321.39"/>
<polygon fill="black" stroke="black" points="79.22,-322.93 79.5,-312.33 72.68,-320.44 79.22,-322.93"/>
</g>
<!-- 17&#45;&gt;18 -->
<g id="edge18" class="edge">
<title>17&#45;&gt;18</title>
<path fill="none" stroke="black" d="M100.55,-277.68C129.51,-244.99 196.7,-169.15 231.1,-130.32"/>
<polygon fill="black" stroke="black" points="233.29,-133.12 237.3,-123.32 228.05,-128.48 233.29,-133.12"/>
</g>
<!-- 25 -->
<g id="node26" class="node">
<title>25</title>
<ellipse fill="none" stroke="black" cx="733.28" cy="-1023.1" rx="27" ry="18"/>
<text text-anchor="middle" x="733.28" y="-1018.42" font-family="Times,serif" font-size="14.00">25</text>
</g>
<!-- 17&#45;&gt;25 -->
<g id="edge32" class="edge">
<title>17&#45;&gt;25</title>
<path fill="none" stroke="black" d="M100.53,-308.87C183.03,-401.99 610.76,-884.8 711.85,-998.91"/>
<polygon fill="black" stroke="black" points="709.08,-1001.06 718.33,-1006.22 714.32,-996.42 709.08,-1001.06"/>
</g>
<!-- 18&#45;&gt;7 -->
<g id="edge30" class="edge">
<title>18&#45;&gt;7</title>
<path fill="none" stroke="black" d="M275.87,-97.52C317.36,-81.79 403.38,-49.16 451.35,-30.97"/>
<polygon fill="black" stroke="black" points="452.3,-34.35 460.41,-27.53 449.82,-27.81 452.3,-34.35"/>
</g>
<!-- 19 -->
<g id="node20" class="node">
<title>19</title>
<ellipse fill="none" stroke="black" cx="611.24" cy="-1053.18" rx="27" ry="18"/>
<text text-anchor="middle" x="611.24" y="-1048.51" font-family="Times,serif" font-size="14.00">19</text>
</g>
<!-- 18&#45;&gt;19 -->
<g id="edge19" class="edge">
<title>18&#45;&gt;19</title>
<path fill="none" stroke="black" d="M258.9,-124.14C302.5,-239.11 546.02,-881.22 600.45,-1024.73"/>
<polygon fill="black" stroke="black" points="597.09,-1025.75 603.91,-1033.86 603.64,-1023.26 597.09,-1025.75"/>
</g>
<!-- 19&#45;&gt;15 -->
<g id="edge29" class="edge">
<title>19&#45;&gt;15</title>
<path fill="none" stroke="black" d="M583.96,-1053.18C566.51,-1053.18 543.58,-1053.18 524.26,-1053.18"/>
<polygon fill="black" stroke="black" points="524.28,-1049.68 514.28,-1053.18 524.28,-1056.68 524.28,-1049.68"/>
</g>
<!-- 20 -->
<g id="node21" class="node">
<title>20</title>
<ellipse fill="none" stroke="black" cx="844.58" cy="-964.69" rx="27" ry="18"/>
<text text-anchor="middle" x="844.58" y="-960.01" font-family="Times,serif" font-size="14.00">20</text>
</g>
<!-- 19&#45;&gt;20 -->
<g id="edge20" class="edge">
<title>19&#45;&gt;20</title>
<path fill="none" stroke="black" d="M634.9,-1044.21C676.39,-1028.47 762.41,-995.85 810.38,-977.66"/>
<polygon fill="black" stroke="black" points="811.33,-981.04 819.44,-974.22 808.85,-974.49 811.33,-981.04"/>
</g>
<!-- 21 -->
<g id="node22" class="node">
<title>21</title>
<ellipse fill="none" stroke="black" cx="938.66" cy="-881.34" rx="27" ry="18"/>
<text text-anchor="middle" x="938.66" y="-876.66" font-family="Times,serif" font-size="14.00">21</text>
</g>
<!-- 20&#45;&gt;21 -->
<g id="edge21" class="edge">
<title>20&#45;&gt;21</title>
<path fill="none" stroke="black" d="M860.96,-950.17C875.58,-937.22 897.19,-918.08 913.91,-903.26"/>
<polygon fill="black" stroke="black" points="915.85,-906.22 921.01,-896.97 911.2,-900.98 915.85,-906.22"/>
</g>
<!-- 22 -->
<g id="node23" class="node">
<title>22</title>
<ellipse fill="none" stroke="black" cx="1010.06" cy="-777.89" rx="27" ry="18"/>
<text text-anchor="middle" x="1010.06" y="-773.22" font-family="Times,serif" font-size="14.00">22</text>
</g>
<!-- 21&#45;&gt;22 -->
<g id="edge22" class="edge">
<title>21&#45;&gt;22</title>
<path fill="none" stroke="black" d="M950.13,-864.72C961.48,-848.28 979.01,-822.88 992.18,-803.8"/>
<polygon fill="black" stroke="black" points="994.96,-805.94 997.76,-795.72 989.2,-801.96 994.96,-805.94"/>
</g>
<!-- 23 -->
<g id="node24" class="node">
<title>23</title>
<ellipse fill="none" stroke="black" cx="1054.63" cy="-660.37" rx="27" ry="18"/>
<text text-anchor="middle" x="1054.63" y="-655.69" font-family="Times,serif" font-size="14.00">23</text>
</g>
<!-- 22&#45;&gt;23 -->
<g id="edge23" class="edge">
<title>22&#45;&gt;23</title>
<path fill="none" stroke="black" d="M1016.83,-760.04C1024.04,-741.04 1035.55,-710.69 1043.97,-688.47"/>
<polygon fill="black" stroke="black" points="1047.14,-690.01 1047.41,-679.41 1040.59,-687.52 1047.14,-690.01"/>
</g>
<!-- 24 -->
<g id="node25" class="node">
<title>24</title>
<ellipse fill="none" stroke="black" cx="1069.78" cy="-535.59" rx="27" ry="18"/>
<text text-anchor="middle" x="1069.78" y="-530.92" font-family="Times,serif" font-size="14.00">24</text>
</g>
<!-- 23&#45;&gt;24 -->
<g id="edge24" class="edge">
<title>23&#45;&gt;24</title>
<path fill="none" stroke="black" d="M1056.87,-641.96C1059.33,-621.66 1063.33,-588.73 1066.23,-564.88"/>
<polygon fill="black" stroke="black" points="1069.67,-565.52 1067.41,-555.17 1062.73,-564.68 1069.67,-565.52"/>
</g>
<!-- 24&#45;&gt;25 -->
<g id="edge25" class="edge">
<title>24&#45;&gt;25</title>
<path fill="none" stroke="black" d="M1058.39,-552.09C1008.87,-623.84 812.01,-909.04 751.24,-997.08"/>
<polygon fill="black" stroke="black" points="748.5,-994.89 745.7,-1005.11 754.26,-998.87 748.5,-994.89"/>
</g>
<!-- 25&#45;&gt;0 -->
<g id="edge26" class="edge">
<title>25&#45;&gt;0</title>
<path fill="none" stroke="black" d="M705.79,-1023.1C640.73,-1023.1 477.17,-1023.1 402.17,-1023.1"/>
<polygon fill="black" stroke="black" points="402.44,-1019.6 392.44,-1023.1 402.44,-1026.6 402.44,-1019.6"/>
</g>
<!-- 25&#45;&gt;19 -->
<g id="edge31" class="edge">
<title>25&#45;&gt;19</title>
<path fill="none" stroke="black" d="M707.7,-1029.41C690.37,-1033.68 667.2,-1039.39 647.91,-1044.14"/>
<polygon fill="black" stroke="black" points="647.13,-1040.73 638.26,-1046.52 648.81,-1047.53 647.13,-1040.73"/>
</g>
</g>
</svg>
